<?xml version="1.0" standalone="no"?>
<!DOCTYPE svg PUBLIC "-//W3C//DTD SVG 20010904//EN"
 "http://www.w3.org/TR/2001/REC-SVG-20010904/DTD/svg10.dtd">
<svg version="1.0" xmlns="http://www.w3.org/2000/svg"
 width="512.000000pt" height="512.000000pt" viewBox="0 0 512.000000 512.000000"
 preserveAspectRatio="xMidYMid meet">
<metadata>
Created by potrace 1.14, written by Peter Selinger 2001-2017
</metadata>
<g transform="translate(0.000000,512.000000) scale(0.100000,-0.100000)"
fill="#000000" stroke="none">
<path d="M0 2560 l0 -2560 2560 0 2560 0 0 2560 0 2560 -2560 0 -2560 0 0
-2560z m3105 1366 c167 -38 310 -141 368 -264 57 -123 59 -366 4 -485 -46 -99
-151 -191 -265 -233 -26 -10 -50 -20 -55 -24 -4 -3 88 -181 204 -396 116 -214
213 -395 216 -401 4 -10 -21 -13 -103 -13 l-109 0 -210 391 c-210 389 -210
390 -239 385 -16 -3 -104 -6 -197 -6 l-168 0 -3 -637 c-4 -559 -6 -645 -21
-696 -54 -185 -167 -301 -342 -352 -80 -24 -265 -24 -360 -1 -86 21 -197 74
-249 119 l-40 34 45 56 c24 31 47 56 51 56 4 1 34 -16 67 -37 33 -22 91 -49
130 -62 60 -19 86 -22 178 -18 92 3 115 8 159 30 60 32 118 93 144 154 34 79
40 191 40 781 l0 573 -360 0 -360 0 0 80 0 80 358 2 357 3 3 454 2 453 343 -5
c259 -4 359 -9 412 -21z"/>
<path d="M2550 3414 l0 -366 248 4 c208 4 255 7 297 23 98 36 159 88 194 165
27 59 30 260 5 332 -22 66 -73 120 -147 156 -91 45 -142 52 -383 52 l-214 0 0
-366z"/>
</g>
</svg>
